<svg viewBox="0 0 50 50" xmlns="http://www.w3.org/2000/svg" xmlns:xlink="http://www.w3.org/1999/xlink" width="50.000000" height="50.000000" fill="none">
	<defs>
		<clipPath id="clipPath_3">
			<rect width="50.000000" height="50.000000" x="0.000000" y="0.000000" fill="rgb(255,255,255)" />
		</clipPath>
		<clipPath id="clipPath_4">
			<rect width="50.000000" height="50.000000" x="0.000000" y="0.000000" fill="rgb(255,255,255)" />
		</clipPath>
	</defs>
	<rect id="diamond.svg" width="50.000000" height="50.000000" x="0.000000" y="0.000000" />
	<g id="diamond.svg fill" clip-path="url(#clipPath_3)" customFrame="url(#clipPath_3)">
		<rect id="diamond.svg fill" width="50.000000" height="50.000000" x="0.000000" y="0.000000" />
		<g id="diamond.svg" clip-path="url(#clipPath_4)" customFrame="url(#clipPath_4)">
			<rect id="diamond.svg" width="50.000000" height="50.000000" x="0.000000" y="0.000000" />
			<path id="Vector" d="M23.6787 46.0099C23.9643 46.4646 24.4643 46.7418 25.002 46.7418C25.5397 46.7418 26.0397 46.4646 26.3253 46.0099C30.5545 39.2668 43.6329 18.4132 46.6347 13.6268C47.001 13.0422 46.9408 12.2864 46.4857 11.7667C44.7644 9.80215 40.6352 5.08706 39.2435 3.49793C38.9466 3.16046 38.5181 2.96558 38.0681 2.96558C34.2124 2.96558 15.7916 2.96558 11.9359 2.96558C11.4859 2.96558 11.0574 3.16046 10.7605 3.49793C9.3688 5.08706 5.2396 9.80215 3.51833 11.7667C3.06327 12.2864 3.00307 13.0422 3.36937 13.6268C6.37112 18.4132 19.4495 39.2668 23.6787 46.0099Z" fill="rgb(253,240,234)" fill-rule="evenodd" />
			<path id="Vector" d="M3.19824 12.6563L46.8263 12.6563C46.7627 12.4479 46.6554 12.2509 46.5053 12.079C44.7836 10.1145 40.6513 5.39849 39.259 3.80915C38.963 3.47044 38.5336 3.27661 38.0834 3.27661C34.2273 3.27661 15.7973 3.27661 11.9412 3.27661C11.4909 3.27661 11.0616 3.47044 10.7656 3.80915C9.3732 5.39849 5.24092 10.1145 3.51923 12.079C3.36916 12.2509 3.26181 12.4479 3.19824 12.6563Z" fill="rgb(255,255,255)" fill-rule="evenodd" />
			<path id="Vector" d="M18.7585 12.6563L25.0117 3.27661L11.9405 3.27661C11.7915 3.27661 11.6446 3.29745 11.5039 3.33914L18.7585 12.6563ZM25.0117 3.27661L31.2648 12.6563L38.5194 3.33914C38.3788 3.29745 38.2318 3.27661 38.0828 3.27661L25.0117 3.27661Z" fill="rgb(253,240,234)" fill-rule="evenodd" />
			<path id="Vector" d="M31.265 12.6563L18.7588 12.6563L25.0119 3.27661L31.265 12.6563Z" fill="rgb(255,255,255)" fill-rule="evenodd" />
			<path id="Vector" d="M25.0119 47.061L18.7588 12.6562L31.265 12.6562L25.0119 47.061Z" fill="rgb(255,255,255)" fill-rule="evenodd" />
			<path id="Vector" d="M12.504 40.8264L13.738 42.7197L15.6312 43.9536L13.738 45.1865L12.504 47.0797L11.2712 45.1865L9.37793 43.9536L11.2712 42.7197L12.504 40.8264Z" fill="rgb(253,240,234)" fill-rule="evenodd" />
			<path id="Vector" d="M6.25403 28.3264L7.48801 30.2197L9.38122 31.4536L7.48801 32.6865L6.25403 34.5797L5.02114 32.6865L3.12793 31.4536L5.02114 30.2197L6.25403 28.3264Z" fill="rgb(253,240,234)" fill-rule="evenodd" />
			<path id="Vector" d="M42.7111 33.5344L43.9451 35.4276L45.8383 36.6616L43.9451 37.8945L42.7111 39.7877L41.4782 37.8945L39.585 36.6616L41.4782 35.4276L42.7111 33.5344Z" fill="rgb(253,240,234)" fill-rule="evenodd" />
			<path id="Vector" d="M19.2776 40.1203C19.8532 40.1203 20.3198 39.6537 20.3198 39.0781C20.3198 38.5025 19.8532 38.0359 19.2776 38.0359C18.702 38.0359 18.2354 38.5025 18.2354 39.0781C18.2354 39.6537 18.702 40.1203 19.2776 40.1203Z" fill="rgb(235,102,43)" fill-rule="nonzero" />
			<path id="Vector" d="M4.4485 13.6984L17.8958 13.6984L23.7602 44.4836L21.9301 41.5665C21.6248 41.0788 20.9807 40.9319 20.494 41.2372C20.0062 41.5426 19.8593 42.1866 20.1647 42.6733C20.1647 42.6733 22.1261 45.8009 22.8045 46.8827C23.2808 47.6425 24.1145 48.1031 25.0119 48.1031C25.9092 48.1031 26.7429 47.6425 27.2192 46.8827L47.5367 14.4936C48.1484 13.5192 48.0473 12.2581 47.2886 11.3921C45.5669 9.42754 41.4357 4.71163 40.0433 3.1223C39.5483 2.55848 38.8344 2.23438 38.083 2.23438L11.9408 2.23438C11.1893 2.23438 10.4754 2.55848 9.98043 3.1223C8.58807 4.71163 4.45684 9.42754 2.73514 11.3921C1.97643 12.2581 1.87534 13.5192 2.4871 14.4936L16.7181 37.18C17.0245 37.6677 17.6676 37.8146 18.1553 37.5093C18.642 37.2039 18.79 36.5599 18.4846 36.0732L4.4485 13.6984ZM44.7123 11.6141L38.7208 4.77627L33.3973 11.6141L40.6447 11.6141C41.22 11.6141 41.6869 12.081 41.6869 12.6563C41.6869 13.2315 41.22 13.6984 40.6447 13.6984L32.1279 13.6984L26.2635 44.4836L45.5753 13.6984L43.7712 13.6984C43.196 13.6984 42.7291 13.2315 42.7291 12.6563C42.7291 12.081 43.196 11.6141 43.7712 11.6141L44.7123 11.6141ZM30.006 13.6984L20.0177 13.6984L25.0119 39.9157L30.006 13.6984ZM5.31143 11.6141L16.6264 11.6141L11.3029 4.77627L5.31143 11.6141ZM20.7066 11.6141L29.3171 11.6141L25.0119 5.15563L20.7066 11.6141ZM36.4353 4.31874L26.9597 4.31874L31.3307 10.8751L36.4353 4.31874ZM23.064 4.31874L13.5885 4.31874L18.6931 10.8751L23.064 4.31874Z" fill="rgb(235,102,43)" fill-rule="evenodd" />
			<path id="Vector" d="M13.3763 40.2572C13.1844 39.9621 12.8564 39.7844 12.5032 39.7844C12.1511 39.7844 11.8232 39.9621 11.6301 40.2572L10.5168 41.9661L8.80783 43.0806C8.51277 43.2725 8.33398 43.6005 8.33398 43.9537C8.33398 44.3058 8.51277 44.6337 8.80783 44.8268L10.5168 45.9401L11.6301 47.6491C11.8232 47.9441 12.1511 48.1229 12.5032 48.1229C12.8564 48.1229 13.1844 47.9441 13.3763 47.6491L14.4908 45.9401L16.1997 44.8268C16.4948 44.6337 16.6724 44.3058 16.6724 43.9537C16.6724 43.6005 16.4948 43.2725 16.1997 43.0806L14.4908 41.9661L13.3763 40.2572ZM12.5032 42.735L12.8641 43.289C12.9431 43.4096 13.0473 43.5138 13.1679 43.5928L13.7219 43.9537L13.1679 44.3134C13.0473 44.3924 12.9431 44.4966 12.8641 44.6184L12.5032 45.1712L12.1434 44.6184C12.0645 44.4966 11.9603 44.3924 11.8385 44.3134L11.2857 43.9537L11.8385 43.5928C11.9603 43.5138 12.0645 43.4096 12.1434 43.289L12.5032 42.735Z" fill="rgb(235,102,43)" fill-rule="evenodd" />
			<path id="Vector" d="M7.12631 27.7572C6.93436 27.4621 6.6064 27.2844 6.2532 27.2844C5.90111 27.2844 5.57314 27.4621 5.38009 27.7572L4.26676 29.4661L2.55783 30.5806C2.26277 30.7725 2.08398 31.1005 2.08398 31.4537C2.08398 31.8058 2.26277 32.1337 2.55783 32.3268L4.26676 33.4401L5.38009 35.1491C5.57314 35.4441 5.90111 35.6229 6.2532 35.6229C6.6064 35.6229 6.93436 35.4441 7.12631 35.1491L8.24074 33.4401L9.94967 32.3268C10.2448 32.1337 10.4224 31.8058 10.4224 31.4537C10.4224 31.1005 10.2448 30.7725 9.94967 30.5806L8.24074 29.4661L7.12631 27.7572ZM6.2532 30.235L6.61407 30.789C6.69305 30.9096 6.79725 31.0138 6.91791 31.0928L7.47183 31.4537L6.91791 31.8134C6.79725 31.8924 6.69305 31.9966 6.61407 32.1184L6.2532 32.6712L5.89343 32.1184C5.81445 31.9966 5.71025 31.8924 5.5885 31.8134L5.03567 31.4537L5.5885 31.0928C5.71025 31.0138 5.81445 30.9096 5.89343 30.789L6.2532 30.235Z" fill="rgb(235,102,43)" fill-rule="evenodd" />
			<path id="Vector" d="M43.5844 32.9652C43.3924 32.6701 43.0644 32.4924 42.7112 32.4924C42.3591 32.4924 42.0312 32.6701 41.8381 32.9652L40.7248 34.6741L39.0159 35.7885C38.7208 35.9805 38.542 36.3085 38.542 36.6617C38.542 37.0138 38.7208 37.3417 39.0159 37.5348L40.7248 38.6481L41.8381 40.357C42.0312 40.6521 42.3591 40.8309 42.7112 40.8309C43.0644 40.8309 43.3924 40.6521 43.5844 40.357L44.6988 38.6481L46.4077 37.5348C46.7028 37.3417 46.8805 37.0138 46.8805 36.6617C46.8805 36.3085 46.7028 35.9805 46.4077 35.7885L44.6988 34.6741L43.5844 32.9652ZM42.7112 35.443L43.0721 35.9969C43.1511 36.1176 43.2553 36.2218 43.376 36.3008L43.9299 36.6617L43.376 37.0214C43.2553 37.1004 43.1511 37.2046 43.0721 37.3264L42.7112 37.8792L42.3515 37.3264C42.2725 37.2046 42.1683 37.1004 42.0465 37.0214L41.4937 36.6617L42.0465 36.3008C42.1683 36.2218 42.2725 36.1176 42.3515 35.9969L42.7112 35.443Z" fill="rgb(235,102,43)" fill-rule="evenodd" />
		</g>
	</g>
</svg>
