<svg viewBox="0 0 80 80" xmlns="http://www.w3.org/2000/svg" xmlns:xlink="http://www.w3.org/1999/xlink" width="80.000000" height="80.000000" fill="none" customFrame="url(#clipPath_0)">
	<defs>
		<clipPath id="clipPath_0">
			<rect width="80.000000" height="80.000000" x="0.000000" y="0.000000" rx="40.000000" fill="rgb(255,255,255)" />
		</clipPath>
		<clipPath id="clipPath_1">
			<rect width="40.000000" height="41.000000" x="20.000000" y="19.500000" fill="rgb(255,255,255)" />
		</clipPath>
		<clipPath id="clipPath_2">
			<rect width="40.000000" height="41.000000" x="20.000000" y="19.500000" fill="rgb(255,255,255)" />
		</clipPath>
		<clipPath id="clipPath_3">
			<rect width="40.000000" height="41.000000" x="20.000000" y="19.500000" fill="rgb(255,255,255)" />
		</clipPath>
	</defs>
	<rect id="div.featureCard__icon" width="80.000000" height="80.000000" x="0.000000" y="0.000000" rx="40.000000" fill="rgb(254,247,244)" />
	<g id="1.svg" clip-path="url(#clipPath_1)" customFrame="url(#clipPath_1)">
		<rect id="1.svg" width="40.000000" height="41.000000" x="20.000000" y="19.500000" />
		<g id="1.svg fill" clip-path="url(#clipPath_2)" customFrame="url(#clipPath_2)">
			<rect id="1.svg fill" width="40.000000" height="41.000000" x="20.000000" y="19.500000" />
			<g id="1.svg" clip-path="url(#clipPath_3)" customFrame="url(#clipPath_3)">
				<rect id="1.svg" width="40.000000" height="41.000000" x="20.000000" y="19.500000" />
				<path id="Vector" d="M58.3327 54.1735L54.2177 54.1735L54.2177 49.1002C55.2729 48.8312 56.2088 48.2191 56.8783 47.3602C57.5478 46.5013 57.9128 45.4442 57.916 44.3552L57.916 40.5719C57.916 39.2679 57.398 38.0173 56.4759 37.0953C55.5539 36.1732 54.3033 35.6552 52.9993 35.6552C51.6953 35.6552 50.4448 36.1732 49.5227 37.0953C48.6007 38.0173 48.0827 39.2679 48.0827 40.5719L48.0827 44.3485C48.0859 45.4261 48.4436 46.4727 49.1005 47.3269C49.7574 48.181 50.6771 48.7954 51.7177 49.0752L51.7177 54.1735L45.0827 54.1735L45.0827 28.7985C45.0827 24.7419 42.8743 22.5085 38.861 22.5085L28.4844 22.5085C24.4594 22.5085 22.2427 24.7419 22.2427 28.7985L22.2427 54.1735L21.666 54.1735C21.3345 54.1735 21.0166 54.3052 20.7821 54.5397C20.5477 54.7741 20.416 55.092 20.416 55.4235C20.416 55.7551 20.5477 56.073 20.7821 56.3074C21.0166 56.5418 21.3345 56.6735 21.666 56.6735L52.871 56.6735C52.9043 56.6735 52.9343 56.6919 52.9677 56.6919C53.001 56.6919 53.031 56.6752 53.0643 56.6735L58.3327 56.6735C58.6642 56.6735 58.9821 56.5418 59.2165 56.3074C59.451 56.073 59.5827 55.7551 59.5827 55.4235C59.5827 55.092 59.451 54.7741 59.2165 54.5397C58.9821 54.3052 58.6642 54.1735 58.3327 54.1735ZM42.5827 54.1735L34.9993 54.1735L34.9993 49.1735C34.9993 48.842 34.8676 48.5241 34.6332 48.2897C34.3988 48.0552 34.0808 47.9235 33.7493 47.9235C33.4178 47.9235 33.0999 48.0552 32.8654 48.2897C32.631 48.5241 32.4993 48.842 32.4993 49.1735L32.4993 54.1735L24.7477 54.1735L24.7477 28.7985C24.7477 26.1419 25.8677 25.0085 28.4894 25.0085L38.866 25.0085C41.4743 25.0085 42.5877 26.1419 42.5877 28.7985L42.5827 54.1735ZM52.9993 46.7669C52.3585 46.7664 51.7441 46.5117 51.291 46.0586C50.8379 45.6054 50.5831 44.991 50.5827 44.3502L50.5827 40.5719C50.5827 39.9309 50.8373 39.3162 51.2905 38.863C51.7437 38.4098 52.3584 38.1552 52.9993 38.1552C53.6403 38.1552 54.255 38.4098 54.7082 38.863C55.1614 39.3162 55.416 39.9309 55.416 40.5719L55.416 44.3485C55.416 44.9896 55.1614 45.6045 54.7083 46.058C54.2551 46.5115 53.6404 46.7664 52.9993 46.7669ZM39.166 32.5085C39.166 32.8401 39.0343 33.158 38.7999 33.3924C38.5655 33.6268 38.2475 33.7585 37.916 33.7585L29.666 33.7585C29.4938 33.7726 29.3206 33.7509 29.1573 33.6947C28.9939 33.6385 28.844 33.549 28.717 33.4319C28.5899 33.3149 28.4886 33.1728 28.4192 33.0145C28.3498 32.8563 28.314 32.6855 28.314 32.5127C28.314 32.34 28.3498 32.1691 28.4192 32.0109C28.4886 31.8527 28.5899 31.7105 28.717 31.5935C28.844 31.4764 28.9939 31.387 29.1573 31.3307C29.3206 31.2745 29.4938 31.2528 29.666 31.2669L37.916 31.2669C38.2461 31.2669 38.5628 31.3974 38.7969 31.63C39.0311 31.8627 39.1638 32.1785 39.166 32.5085ZM39.166 38.7569C39.166 39.0884 39.0343 39.4063 38.7999 39.6408C38.5655 39.8752 38.2475 40.0069 37.916 40.0069L29.666 40.0069C29.3345 40.0069 29.0166 39.8752 28.7821 39.6408C28.5477 39.4063 28.416 39.0884 28.416 38.7569C28.416 38.4254 28.5477 38.1074 28.7821 37.873C29.0166 37.6386 29.3345 37.5069 29.666 37.5069L37.916 37.5069C38.2475 37.5069 38.5655 37.6386 38.7999 37.873C39.0343 38.1074 39.166 38.4254 39.166 38.7569Z" fill="rgb(235,102,43)" fill-rule="nonzero" />
			</g>
		</g>
	</g>
</svg>
